<svg width="67" height="99" xmlns="http://www.w3.org/2000/svg" xml:space="preserve" enable-background="new 0 0 100 100" version="1.1">
 <g>
  <path d="m67.207,10.728c-0.006,-0.095 -0.01,-0.187 -0.025,-0.279c-0.854,-9.932 -28.045,-10.449 -33.57,-10.449c-5.523,0 -32.717,0.517 -33.572,10.449c-0.012,0.092 -0.019,0.185 -0.024,0.279c-0.002,0.066 -0.016,0.128 -0.016,0.196c0,0.081 0.016,0.154 0.02,0.232c0.004,0.054 -0.005,0.106 0.002,0.16l0.06,0.551c0,0.001 0,0.002 0,0.003l8.505,78.834c0.001,0.018 0.007,0.033 0.009,0.049c0.645,7.534 17.63,8.364 25.016,8.364c7.388,0 24.373,-0.83 25.019,-8.364c0.002,-0.016 0.006,-0.031 0.008,-0.049l8.506,-78.834c0,-0.001 0,-0.002 0,-0.003l0.059,-0.551c0.006,-0.053 -0.002,-0.105 0,-0.16c0.006,-0.078 0.02,-0.152 0.02,-0.232c-0.001,-0.068 -0.015,-0.13 -0.017,-0.196zm-12.039,43.795c-0.078,0.237 -0.137,0.486 -0.166,0.746c-0.02,0.172 -3.088,17.237 -21.39,17.237c-19.222,0 -21.309,-16.533 -21.388,-17.237c-0.03,-0.261 -0.088,-0.51 -0.167,-0.748l-3.874,-35.892c8.729,2.995 21.788,3.221 25.429,3.221c3.64,0 16.701,-0.226 25.429,-3.221l-3.873,35.894zm-21.556,-47.192c13.125,0 21.806,2.031 25.144,3.594c-3.338,1.561 -12.02,3.593 -25.144,3.593c-13.126,0 -21.803,-2.031 -25.144,-3.593c3.341,-1.562 12.019,-3.594 25.144,-3.594zm-17.815,81.849l-1.726,-15.981c4.039,3.485 10.25,6.64 19.541,6.64c9.044,0 15.291,-3.11 19.589,-7.077l-1.771,16.42c-1.816,1.032 -8.064,2.606 -17.818,2.606c-9.752,-0.001 -15.999,-1.575 -17.815,-2.608z" fill="#000000"/>
 </g>
</svg>