<?xml version="1.0" encoding="UTF-8"?>
<svg version="1.1" viewBox="0 0 2048 894" width="632" height="276" xmlns="http://www.w3.org/2000/svg">
<path transform="translate(1675,136)" d="m0 0h9l7 4 12 11 14 12 7 7 8 7 12 11 8 7 12 11 11 10 11 9 11 11 8 7 3 4 1 4v26l-3 14-8 16-8 11-10 9-13 8-8 4-17 6-73 22-30 9h-4l4 7 13 16 8 11 14 18 9 12 14 18 12 16 14 18 13 17 4 5 10-1 4-1h37l21 5 16 7 13 9 16 16 10 14 8 16 4 14 1 7v23l-3 16-6 17-10 19-12 16-8 10-13 11-15 10-16 9-20 8-15 5-29 5-16 2-56 3h-218l-774-2-104-1-23-7-11-8-7-8-5-10-2-14-140-1-66-2-131-2-6-5-2-4v-7l7-16 7-11 9-10 8-7 14-7 9-3 47-2h8l-5-23-10-42-4-21 1-17 5-15 6-8 8-7 10-5 30-7h4v-2l-5-2-4-7 1-9 11-16 8-11 4-5 8-4 226-62 66-18 24-6 20-2 19 1 16 4 15 8 7 6v2l4 2 10 11 10-3 25-6h18l18 5 11 5 8-7 16-12 22-13 16-7 13-4 19-3h12l17 3 16 6 9 6 13 12 10 9 6 5 2 1 2-5 9-11 13-15 17-17 11-9 13-10 19-12 21-11 24-9 19-5 27-4 11-1h23l28 3 16 3 13 5 13 8 12 9 9 9 3-21 7-17 10-14 12-12 13-9 16-7 58-17 60-17 54-15 49-13 43-11 24-6z" fill="#212021"/>
<path transform="translate(1675,156)" d="m0 0h4l-4 18-7 19-9 17-9 12-11 11-13 8-14 6-48 14-52 15-52 14-10 3-10 6-3 7v8l3 9 10 19 13 25 10 19 15 29 12 22 8 16 15 29 19 38 11 23 16 33 5 19 3 21-1 15-3 12-4 10-8 11-8 7-10 6-13 5-17 3h-204l-70-1-1-3 4-15 7-19 8-16 8-12 9-10 13-9 11-4 35-3 72-4 40-3 10-3 5-5 1-7-4-10-16-29-15-27-14-26-12-22-17-33-9-17-11-23-12-28-9-27-4-20v-23l4-14 7-12 12-12 14-9 14-7 17-6 20-6 104-27 113-29z" fill="#FEFEFE"/>
<path transform="translate(1199,278)" d="m0 0h40l20 4 12 4 11 6 10 8 8 9 8 15 3 11 1 7v32l-2 18-6 28-11 36-10 30-18 48-10 26-17 44-11 29-19 49-2 2h-70l1-6 8-21 11-27 14-37 8-21 6-15 14-36 16-41 12-31 7-19 5-18v-30l-5-12-4-6-8-7-9-4-11-3-25-1-13 2-15 5-15 8-12 9-12 11-11 12-12 17-12 19-20 35-9 20-6 15-7 25-1 10v16l1 9 7 16 9 10 10 7 11 5 12 4 16 2h45l-3 10-14 38-8 21-4 9h-96l-10-2-15-6-11-7-10-9-9-12-6-13-3-9-4-23-1-10v-35l3-21 5-21 7-20 6-15 9-17 7-14 16-27 14-22 14-20 11-14 9-11 12-13 9-9 11-9 13-10 20-12 19-9 24-8 18-4z" fill="#FEFEFE"/>
<path transform="translate(932,346)" d="m0 0h15l12 2 8 4 8 9 4 10 1 6v16l-5 25-4 14-11 34-16 50-18 56-15 47-17 54-4 10h-71l-1-3 19-56 14-41 12-36 12-35 20-60v-8l-4-6-8-2-10 3-6 8-6 16-10 28-14 40-9 24-10 30-17 48-12 34-5 15-1 1h-62l1-5 13-34 9-23 6-16 16-42 15-40 8-20 12-33v-13l-4-4-8-1-8 3-6 7-10 24-12 31-11 27-10 26-34 86-10 25-2 2-36 1h-17l1-5 11-31 8-20 15-41 11-29 6-16 16-44 5-13 6-15 7-20 10-27 8-21 9-6 17-8 15-5 5-1h27l12 4 10 6 4 3 5-1 14-12 18-13 17-10 16-7 17-5z" fill="#FEFEFE"/>
<path transform="translate(680,473)" d="m0 0h7l-1 6-9 22-19 46-12 29-17 41-16 39-9 22-1 10 4 10 7 6 9 4 11 2 796 3h114l13-3 16-8 12-9 9-8 9-11 11-15 17-25 9-13 9-12 11-13 9-10 7-7 7-8 8-8 11-9 13-8 18-8 15-4 17-3h12l18 3 15 5 14 7 3 2v2l-11-3-14-3h-32l-12 3-13 5-16 9-13 11-19 19-9 11-8 9-8 10-14 18-13 19-8 11-10 15-10 14-13 13-14 10-12 6-14 5-8 1-666 1h-311l-14-2-13-5-8-6-5-7-1-3v-13l3-10 12-29 8-20 5-11 12-29 8-19 36-87 4-9 3-2 35-6z" fill="#FEFEFE"/>
<path transform="translate(627,425)" d="m0 0 2 2-4 8-13 30-5 8-8 7-9 9-8 7-13 13-8 7-10 10-8 7-16 15-12 12-6 5-1 4 9 13 12 17 9 13 4 11 1 9-6 20-12 30-1 1h-17l-35-1 1-6 5-13 10-25 1-8-2-7-8-10-10-11-7-8-5-1-24 46-13 24-4 8-5 6-7 4-5 1h-31l-9-1 2-6 12-24 10-19 13-25 10-19 8-16 12-23 43-83 4-3 26-7 16-4 3 1-9 20-6 12-11 23-9 19v2l5-1 8-7 39-39 7-8 35-35 18-5 30-8z" fill="#FEFEFE"/>
<path transform="translate(436,472)" d="m0 0h3l-1 5-8 16-7 9-8 6-11 5-18 5-25 5-19 4-12 4-3 3-2 4v9l10 41 11 45 2 10v11l-3 12-4 8-9 6-3 1h-134l2-5 7-11 11-12 8-5 10-3 47-2 13-2 5-4 1-3v-15l-16-64-4-18 1-10 6-12 8-7 14-5 37-9 33-8 52-13z" fill="#FEFEFE"/>
<path transform="translate(672,355)" d="m0 0h31l10 4 6 4 5 8 1 3v12l-4 12-11 25-12 28-5 8-46 8-11 2h-6l2-6 18-41 4-12v-9l-4-5-7-2h-12l-24 5-36 9-48 11-24 6-92 22-55 13-8 1 2-5 10-15 3-3 81-22 37-10 152-41 18-5z" fill="#FEFEFE"/>
</svg>
